<svg xmlns="http://www.w3.org/2000/svg" viewBox="0 0 512 512">
  <rect width="512" height="512" rx="120" fill="#11161A" />
  <path d="M112 292L154 191C163 172 182 160 203 160H309C330 160 349 172 358 191L400 292V341C400 357 387 369 372 369H357C341 369 328 357 328 341V331H184V341C184 357 171 369 155 369H140C125 369 112 357 112 341V292Z" fill="#FF7A3D"/>
  <circle cx="183" cy="309" r="28" fill="#F3EFE9"/>
  <circle cx="329" cy="309" r="28" fill="#F3EFE9"/>
  <path d="M172 220H340L322 191C319 185 314 182 309 182H203C198 182 193 185 190 191L172 220Z" fill="#86B7FF"/>
</svg>
